<svg version="1.1" id="Layer_1" xmlns="http://www.w3.org/2000/svg" xmlns:xlink="http://www.w3.org/1999/xlink" x="0px" y="0px"
	 width="100%" viewBox="0 0 926 926" enable-background="new 0 0 926 926" xml:space="preserve">
<path fill="#010101" opacity="1.000000" stroke="none" 
	d="
M1.000000,249.000000 
	C1.000000,166.000000 1.000000,83.500000 1.000000,1.000000 
	C309.666656,1.000000 618.333313,1.000000 927.000000,1.000000 
	C927.000000,309.666656 927.000000,618.333313 927.000000,927.000000 
	C618.333313,927.000000 309.666656,927.000000 1.000000,927.000000 
	C1.000000,701.166687 1.000000,475.333344 1.000000,249.000000 
M384.860840,869.024292 
	C406.255096,892.763062 433.236176,906.399048 464.841248,906.162109 
	C496.418091,905.925354 523.182434,891.681458 544.911377,868.412231 
	C534.809509,886.580566 518.903687,897.887146 500.719757,907.042847 
	C633.393311,907.042847 766.066833,907.042847 898.850586,907.042847 
	C898.975769,909.778259 899.078979,912.034241 899.183533,914.319275 
	C901.607727,914.319275 903.671997,914.319275 905.681519,914.319275 
	C905.681519,616.419495 905.681519,318.848419 905.681519,21.208820 
	C611.143799,21.208820 316.895050,21.208820 22.409792,21.208820 
	C22.409792,318.988647 22.409792,616.548889 22.409792,914.330933 
	C24.663828,914.330933 26.712866,914.330933 28.849600,914.330933 
	C28.967098,911.768127 29.070406,909.514771 29.195444,906.787476 
	C162.190613,906.787476 294.815155,906.787476 428.361511,906.787476 
	C401.955322,892.457703 391.582153,883.829895 383.794586,869.167480 
	C383.949188,869.021118 384.103790,868.874756 384.860840,869.024292 
z"/>
<path fill="#FEFEFE" opacity="1.000000" stroke="none" 
	d="
M383.309570,869.583069 
	C391.582153,883.829895 401.955322,892.457703 428.361511,906.787476 
	C294.815155,906.787476 162.190613,906.787476 29.195444,906.787476 
	C29.070406,909.514771 28.967098,911.768127 28.849600,914.330933 
	C26.712866,914.330933 24.663828,914.330933 22.409792,914.330933 
	C22.409792,616.548889 22.409792,318.988647 22.409792,21.208820 
	C316.895050,21.208820 611.143799,21.208820 905.681519,21.208820 
	C905.681519,318.848419 905.681519,616.419495 905.681519,914.319275 
	C903.671997,914.319275 901.607727,914.319275 899.183533,914.319275 
	C899.078979,912.034241 898.975769,909.778259 898.850586,907.042847 
	C766.066833,907.042847 633.393311,907.042847 500.719757,907.042847 
	C518.903687,897.887146 534.809509,886.580566 544.911377,868.412231 
	C523.182434,891.681458 496.418091,905.925354 464.841248,906.162109 
	C433.236176,906.399048 406.255096,892.763062 384.395203,868.614380 
	C383.361420,868.146240 382.793213,868.088135 381.541260,867.960022 
	C382.469696,868.812195 382.889618,869.197632 383.309570,869.583069 
M711.077759,734.610962 
	C711.340088,734.627991 711.602356,734.645020 711.864685,734.662048 
	C711.721985,734.289001 711.579224,733.915955 711.210144,732.884766 
	C707.201904,722.919556 700.014038,719.523193 689.213562,719.783264 
	C662.743469,720.420715 636.246155,719.858765 609.760437,719.955078 
	C596.037170,720.005005 582.696716,719.003845 571.546570,709.104736 
	C571.546570,709.832031 571.504211,709.997437 571.552612,710.129639 
	C575.731262,721.540405 585.551331,727.684998 600.631226,727.771423 
	C630.781067,727.944214 660.932983,728.042603 691.082031,727.853027 
	C698.551086,727.806091 705.210815,729.163696 711.077759,734.610962 
M720.941223,748.297729 
	C720.659790,748.292664 720.378357,748.287537 720.096924,748.282471 
	C720.183594,748.686279 720.270203,749.090088 720.667236,750.114075 
	C742.773254,786.237244 777.916809,801.068726 823.440186,792.963135 
	C850.495239,788.145935 870.518066,773.177429 884.191467,749.657410 
	C877.842651,755.311646 872.181946,761.953369 865.311218,766.921753 
	C834.688416,789.066040 800.975159,791.998291 765.585327,781.220947 
	C747.147278,775.606018 733.025208,763.669800 720.941223,748.297729 
M869.279236,491.172882 
	C833.562439,539.575562 785.926575,566.620178 725.688660,569.981262 
	C697.943237,571.529419 670.104370,571.411011 642.307495,572.027832 
	C634.773499,572.195007 633.374329,573.769897 634.610962,580.575562 
	C638.449097,580.380920 642.245239,580.102966 646.045898,580.009277 
	C672.828979,579.349060 699.667297,579.592773 726.385864,577.918701 
	C789.169373,573.984802 836.743347,543.893799 870.949585,490.966217 
	C870.857849,490.706512 870.766113,490.446777 870.674377,490.187073 
	C870.413330,490.420929 870.152344,490.654785 869.279236,491.172882 
M464.872498,898.063599 
	C468.342590,897.715698 471.858856,897.616150 475.275513,896.980896 
	C503.807800,891.675598 527.861694,878.920105 543.742859,853.817810 
	C555.395264,835.399597 558.373718,814.712402 556.831116,793.317261 
	C555.080627,769.037964 546.093750,747.952515 527.187988,732.102905 
	C519.851562,725.952454 511.481567,720.921570 503.180511,716.067993 
	C495.433472,711.538269 489.942688,705.924927 489.934326,696.498779 
	C489.899353,657.004150 489.892395,617.509399 489.999268,578.015015 
	C490.024536,568.677673 494.477020,563.961182 503.721619,563.835571 
	C521.211670,563.597961 538.708679,563.664490 556.200256,563.847290 
	C563.143066,563.919922 567.502197,567.362061 569.029480,574.208862 
	C569.992310,578.525391 569.958069,583.109985 570.003479,587.578125 
	C570.330627,619.724182 570.061279,651.886169 571.020935,684.012085 
	C571.569336,702.368042 581.482605,710.981628 599.976807,711.214966 
	C628.461853,711.574402 656.985779,712.558289 685.424561,711.475403 
	C702.337463,710.831482 712.581970,716.607300 720.475830,731.583313 
	C748.976929,785.654724 811.478394,787.271179 848.643616,767.768127 
	C882.941772,749.769531 902.088379,709.318115 896.183533,670.312866 
	C887.295959,611.604187 829.510742,575.206421 773.148926,593.056152 
	C748.294189,600.927795 729.851196,616.755615 717.968628,639.989990 
	C712.868774,649.961853 705.231384,655.580750 693.835754,655.510254 
	C677.012390,655.406189 660.189331,655.252014 643.366150,655.118347 
	C642.033142,655.107727 640.698486,655.129211 639.367371,655.071716 
	C630.748108,654.699097 625.971130,650.309814 625.880981,641.635925 
	C625.668030,621.143066 625.753662,600.646118 625.857544,580.151489 
	C625.919006,568.031982 630.021912,563.980286 642.026550,563.798279 
	C656.516724,563.578735 671.008240,563.444824 685.498230,563.214600 
	C707.978821,562.857300 730.666321,563.452637 752.653442,558.358826 
	C819.050781,542.976685 863.505432,502.150513 887.365601,438.808777 
	C897.065735,413.057678 897.818054,386.048279 895.001343,358.934235 
	C892.052795,330.551086 883.990417,303.828339 868.252380,279.742279 
	C848.497009,249.507950 821.248657,227.965195 788.415100,213.975601 
	C772.961914,207.391342 764.361389,197.572769 763.058533,181.085159 
	C763.045471,180.919373 763.019897,180.753632 762.987183,180.590485 
	C755.447571,143.103439 739.298950,109.872353 712.466919,82.503258 
	C678.836182,48.199364 636.510986,32.846798 589.497986,29.911350 
	C547.726074,27.303156 509.900604,39.304058 476.134949,64.132530 
	C472.428162,66.858177 468.070801,68.699150 463.373718,70.652817 
	C459.348267,68.351479 455.070374,66.398827 451.335999,63.695389 
	C409.507141,33.414036 363.187897,23.543949 312.622955,33.047668 
	C273.258118,40.446316 238.556000,56.866966 211.363571,87.006401 
	C185.938400,115.187042 170.568832,148.415207 164.211777,185.684921 
	C161.967163,198.844421 155.347794,206.967010 143.093002,212.216843 
	C111.954918,225.556091 84.960083,244.727966 64.935738,272.500732 
	C35.833862,312.863586 27.737810,358.665405 33.434296,406.919495 
	C41.772274,477.549286 99.366905,540.561096 168.669540,557.012085 
	C191.229477,562.367310 214.233948,562.640930 237.211777,563.140686 
	C253.867188,563.502991 270.531616,563.450928 287.187073,563.811829 
	C297.834656,564.042542 302.104584,568.202576 302.257965,578.726990 
	C302.549286,598.715271 302.706940,618.709717 302.556580,638.698853 
	C302.464050,650.999207 297.954559,655.099182 285.735229,655.135742 
	C269.574036,655.184143 253.393127,654.744141 237.257858,655.412048 
	C224.590622,655.936340 215.963501,651.107605 210.130096,639.973450 
	C189.109070,599.851013 146.082916,580.334778 102.212288,591.637024 
	C67.121559,600.677368 44.713291,623.877014 34.753117,658.131409 
	C24.465500,693.512024 33.616787,725.057617 58.412018,751.869873 
	C77.364288,772.363953 102.104553,779.079590 129.066193,778.722473 
	C153.882446,778.393860 176.087097,770.566467 193.001648,751.784729 
	C200.160751,743.835266 205.809647,734.409790 211.416702,725.211365 
	C216.965027,716.109314 224.212463,711.303955 235.088013,711.596252 
	C249.741470,711.990173 264.409882,711.961243 279.070984,711.901184 
	C295.397125,711.834351 311.725403,711.665588 328.047028,711.290894 
	C346.422302,710.869019 355.244263,702.735779 357.240387,684.637329 
	C357.714172,680.341309 357.981934,676.000061 357.991028,671.678894 
	C358.054504,641.522522 357.983673,611.365845 358.045380,581.209473 
	C358.070648,568.851440 363.526184,563.566406 375.774231,563.590942 
	C390.931702,563.621277 406.089233,563.618652 421.246704,563.593994 
	C433.536041,563.573975 438.088654,567.739258 438.121216,579.836243 
	C438.218506,615.996765 437.602020,652.170227 438.422211,688.312439 
	C438.753113,702.892578 433.738678,711.601929 420.736603,718.402100 
	C392.017181,733.422607 375.310608,757.200012 371.554596,790.120178 
	C365.890381,839.764893 392.000122,880.275635 439.972382,894.001404 
	C447.717407,896.217468 455.970367,896.658203 464.872498,898.063599 
M113.971512,549.508972 
	C127.614693,558.238770 142.141922,565.071045 157.512207,570.204468 
	C182.875702,578.675598 209.231262,578.875366 235.484940,579.518311 
	C254.877335,579.993286 274.290741,579.611633 293.767120,579.611633 
	C294.240356,573.282227 293.241730,572.158325 285.979431,572.039124 
	C261.671478,571.640320 237.357910,571.453491 213.056900,570.799133 
	C194.213699,570.291748 175.529175,568.162964 157.444550,562.468384 
	C120.584236,550.861511 89.876793,530.140137 65.488052,500.107208 
	C64.446556,498.824646 63.050831,497.829712 61.820129,496.700775 
	C75.237862,518.080994 92.434883,535.481506 113.971512,549.508972 
M85.965767,787.512268 
	C101.044556,793.630371 116.796906,795.827393 132.931473,794.946411 
	C162.889587,793.310730 186.881119,780.641541 203.948883,755.614563 
	C204.819778,754.337524 205.529526,752.950562 206.314316,751.614807 
	C206.026764,751.282288 205.739212,750.949768 205.451660,750.617249 
	C184.551178,776.680420 156.900238,787.621765 124.400009,787.016113 
	C91.897156,786.410400 64.289978,774.861389 43.585526,748.696533 
	C53.527683,766.062744 66.828423,779.456177 85.965767,787.512268 
M261.558044,728.275940 
	C281.855743,728.168030 302.158661,728.287537 322.448120,727.821167 
	C329.002472,727.670532 335.679993,726.565063 342.015930,724.845337 
	C349.702393,722.759155 355.087860,716.258240 355.920990,709.549194 
	C346.932037,717.587219 336.145813,719.766418 324.853302,719.833679 
	C294.575684,720.014160 264.296387,720.044067 234.018478,719.934326 
	C227.484009,719.910645 222.870483,722.480164 219.669922,727.995117 
	C218.551636,729.922058 217.387894,731.822571 215.874023,734.355835 
	C217.040924,733.958191 217.718948,733.922119 218.101227,733.567383 
	C223.075882,728.950500 229.070267,727.726807 235.630325,727.918823 
	C243.943176,728.162231 252.262985,728.167786 261.558044,728.275940 
M546.645020,580.058350 
	C551.558899,580.058350 556.472778,580.058350 561.399658,580.058350 
	C561.415466,573.777588 559.911682,571.990662 553.755249,571.971863 
	C537.634766,571.922791 521.513855,571.911255 505.393463,571.979370 
	C498.947113,572.006592 497.434814,574.159912 498.789825,580.122498 
	C514.507812,580.122498 530.101624,580.122498 546.645020,580.058350 
M389.501038,572.283752 
	C384.519989,572.173889 379.538818,571.972229 374.557892,571.976746 
	C368.021423,571.982727 366.253021,574.131348 366.973450,580.421631 
	C387.826294,580.421631 408.637360,580.421631 429.455505,580.421631 
	C430.259186,573.515564 429.049011,571.953796 422.376465,571.978088 
	C411.750763,572.016785 401.125671,572.213013 389.501038,572.283752 
z"/>
<path fill="#36C2F1" opacity="1.000000" stroke="none" 
	d="
M464.015198,70.950455 
	C468.070801,68.699150 472.428162,66.858177 476.134949,64.132530 
	C509.900604,39.304058 547.726074,27.303156 589.497986,29.911350 
	C636.510986,32.846798 678.836182,48.199364 712.466919,82.503258 
	C739.298950,109.872353 755.447571,143.103439 762.987183,180.590485 
	C763.019897,180.753632 763.045471,180.919373 763.058533,181.085159 
	C764.361389,197.572769 772.961914,207.391342 788.415100,213.975601 
	C821.248657,227.965195 848.497009,249.507950 868.252380,279.742279 
	C883.990417,303.828339 892.052795,330.551086 895.001343,358.934235 
	C897.818054,386.048279 897.065735,413.057678 887.365601,438.808777 
	C863.505432,502.150513 819.050781,542.976685 752.653442,558.358826 
	C730.666321,563.452637 707.978821,562.857300 685.498230,563.214600 
	C671.008240,563.444824 656.516724,563.578735 642.026550,563.798279 
	C630.021912,563.980286 625.919006,568.031982 625.857544,580.151489 
	C625.753662,600.646118 625.668030,621.143066 625.880981,641.635925 
	C625.971130,650.309814 630.748108,654.699097 639.367371,655.071716 
	C640.698486,655.129211 642.033142,655.107727 643.366150,655.118347 
	C660.189331,655.252014 677.012390,655.406189 693.835754,655.510254 
	C705.231384,655.580750 712.868774,649.961853 717.968628,639.989990 
	C729.851196,616.755615 748.294189,600.927795 773.148926,593.056152 
	C829.510742,575.206421 887.295959,611.604187 896.183533,670.312866 
	C902.088379,709.318115 882.941772,749.769531 848.643616,767.768127 
	C811.478394,787.271179 748.976929,785.654724 720.475830,731.583313 
	C712.581970,716.607300 702.337463,710.831482 685.424561,711.475403 
	C656.985779,712.558289 628.461853,711.574402 599.976807,711.214966 
	C581.482605,710.981628 571.569336,702.368042 571.020935,684.012085 
	C570.061279,651.886169 570.330627,619.724182 570.003479,587.578125 
	C569.958069,583.109985 569.992310,578.525391 569.029480,574.208862 
	C567.502197,567.362061 563.143066,563.919922 556.200256,563.847290 
	C538.708679,563.664490 521.211670,563.597961 503.721619,563.835571 
	C494.477020,563.961182 490.024536,568.677673 489.999268,578.015015 
	C489.892395,617.509399 489.899353,657.004150 489.934326,696.498779 
	C489.942688,705.924927 495.433472,711.538269 503.180511,716.067993 
	C511.481567,720.921570 519.851562,725.952454 527.187988,732.102905 
	C546.093750,747.952515 555.080627,769.037964 556.831116,793.317261 
	C558.373718,814.712402 555.395264,835.399597 543.742859,853.817810 
	C527.861694,878.920105 503.807800,891.675598 475.275513,896.980896 
	C471.858856,897.616150 468.342590,897.715698 464.436951,897.528870 
	C463.999512,878.673218 463.997650,860.352234 464.399475,841.954285 
	C487.467377,840.864929 506.952911,816.341675 500.969788,792.614746 
	C496.754456,775.898254 484.116669,765.651550 464.012207,762.552917 
	C464.012665,677.055237 464.006348,592.027649 464.463928,506.926270 
	C538.581909,506.875549 612.236450,507.039825 685.889771,506.816345 
	C703.015381,506.764404 720.371521,506.928223 737.219116,504.356384 
	C803.402527,494.253357 860.909851,424.946442 835.573608,340.896851 
	C823.275024,300.097809 793.127380,275.052429 754.101685,260.151367 
	C745.563293,256.891205 736.759155,254.329437 728.090393,251.407745 
	C715.720215,247.238571 710.556946,238.197662 709.923645,225.557983 
	C709.349731,214.101685 708.587158,202.602280 706.947021,191.260788 
	C698.314148,131.562851 645.381531,85.816742 584.825745,85.062469 
	C555.646118,84.699005 529.879944,94.028061 506.923676,111.542709 
	C497.000031,119.114037 487.804260,127.657127 477.717377,134.987610 
	C473.961731,137.716995 468.606842,138.245773 463.983032,139.323288 
	C463.994965,116.229172 464.005066,93.589813 464.015198,70.950455 
M769.919800,705.493774 
	C786.159180,728.126160 813.525696,729.702576 831.671936,709.050842 
	C842.346558,696.902405 844.330383,679.503418 836.603027,665.803162 
	C828.473694,651.390259 811.783997,643.058472 796.277161,645.671753 
	C768.015503,650.434509 754.653137,679.998657 769.919800,705.493774 
z"/>
<path fill="#252F68" opacity="1.000000" stroke="none" 
	d="
M463.694458,70.801636 
	C464.005066,93.589813 463.994965,116.229172 463.578247,139.397156 
	C458.732697,138.262054 453.673706,137.450653 449.979431,134.763260 
	C441.377441,128.505707 433.525543,121.228638 425.204773,114.570786 
	C395.763031,91.012878 362.502472,79.570778 325.008209,87.228790 
	C273.364807,97.776688 237.099716,126.828918 223.832428,179.518417 
	C220.009491,194.700790 219.452454,210.772629 218.141739,226.498657 
	C217.138901,238.530930 212.271332,247.122925 200.562653,251.147049 
	C193.646194,253.524139 186.727432,255.905701 179.745880,258.080322 
	C133.239990,272.565826 81.494820,315.808289 86.911827,389.567383 
	C90.851570,443.211578 130.976883,491.297485 183.348450,503.087555 
	C202.720490,507.448639 222.445557,506.777832 242.068405,506.836151 
	C310.220428,507.038696 378.373352,506.935638 446.525940,506.952606 
	C452.350647,506.954071 458.175323,506.983551 464.000031,507.000031 
	C464.006348,592.027649 464.012665,677.055237 463.616577,762.663696 
	C438.846588,764.109192 421.899689,787.442200 426.976349,809.982971 
	C430.807068,826.991638 445.033051,839.551636 463.995789,842.031311 
	C463.997650,860.352234 463.999512,878.673218 463.994934,897.456848 
	C455.970367,896.658203 447.717407,896.217468 439.972382,894.001404 
	C392.000122,880.275635 365.890381,839.764893 371.554596,790.120178 
	C375.310608,757.200012 392.017181,733.422607 420.736603,718.402100 
	C433.738678,711.601929 438.753113,702.892578 438.422211,688.312439 
	C437.602020,652.170227 438.218506,615.996765 438.121216,579.836243 
	C438.088654,567.739258 433.536041,563.573975 421.246704,563.593994 
	C406.089233,563.618652 390.931702,563.621277 375.774231,563.590942 
	C363.526184,563.566406 358.070648,568.851440 358.045380,581.209473 
	C357.983673,611.365845 358.054504,641.522522 357.991028,671.678894 
	C357.981934,676.000061 357.714172,680.341309 357.240387,684.637329 
	C355.244263,702.735779 346.422302,710.869019 328.047028,711.290894 
	C311.725403,711.665588 295.397125,711.834351 279.070984,711.901184 
	C264.409882,711.961243 249.741470,711.990173 235.088013,711.596252 
	C224.212463,711.303955 216.965027,716.109314 211.416702,725.211365 
	C205.809647,734.409790 200.160751,743.835266 193.001648,751.784729 
	C176.087097,770.566467 153.882446,778.393860 129.066193,778.722473 
	C102.104553,779.079590 77.364288,772.363953 58.412018,751.869873 
	C33.616787,725.057617 24.465500,693.512024 34.753117,658.131409 
	C44.713291,623.877014 67.121559,600.677368 102.212288,591.637024 
	C146.082916,580.334778 189.109070,599.851013 210.130096,639.973450 
	C215.963501,651.107605 224.590622,655.936340 237.257858,655.412048 
	C253.393127,654.744141 269.574036,655.184143 285.735229,655.135742 
	C297.954559,655.099182 302.464050,650.999207 302.556580,638.698853 
	C302.706940,618.709717 302.549286,598.715271 302.257965,578.726990 
	C302.104584,568.202576 297.834656,564.042542 287.187073,563.811829 
	C270.531616,563.450928 253.867188,563.502991 237.211777,563.140686 
	C214.233948,562.640930 191.229477,562.367310 168.669540,557.012085 
	C99.366905,540.561096 41.772274,477.549286 33.434296,406.919495 
	C27.737810,358.665405 35.833862,312.863586 64.935738,272.500732 
	C84.960083,244.727966 111.954918,225.556091 143.093002,212.216843 
	C155.347794,206.967010 161.967163,198.844421 164.211777,185.684921 
	C170.568832,148.415207 185.938400,115.187042 211.363571,87.006401 
	C238.556000,56.866966 273.258118,40.446316 312.622955,33.047668 
	C363.187897,23.543949 409.507141,33.414036 451.335999,63.695389 
	C455.070374,66.398827 459.348267,68.351479 463.694458,70.801636 
M139.673004,647.614990 
	C132.955338,645.141907 126.120560,644.630859 119.050499,645.923523 
	C98.658623,649.651917 84.160538,669.289307 87.144684,689.324646 
	C90.210030,709.905212 110.649376,725.755249 130.856415,723.221497 
	C147.472595,721.138062 161.930344,706.533569 164.672089,689.062500 
	C167.308716,672.261230 157.380981,655.414612 139.673004,647.614990 
z"/>
<path fill="#0B0B0B" opacity="1.000000" stroke="none" 
	d="
M870.717346,491.473206 
	C836.743347,543.893799 789.169373,573.984802 726.385864,577.918701 
	C699.667297,579.592773 672.828979,579.349060 646.045898,580.009277 
	C642.245239,580.102966 638.449097,580.380920 634.610962,580.575562 
	C633.374329,573.769897 634.773499,572.195007 642.307495,572.027832 
	C670.104370,571.411011 697.943237,571.529419 725.688660,569.981262 
	C785.926575,566.620178 833.562439,539.575562 869.779907,491.193726 
	C870.426147,491.300751 870.571777,491.386993 870.717346,491.473206 
z"/>
<path fill="#0A0A0A" opacity="1.000000" stroke="none" 
	d="
M113.672722,549.303406 
	C92.434883,535.481506 75.237862,518.080994 61.820129,496.700775 
	C63.050831,497.829712 64.446556,498.824646 65.488052,500.107208 
	C89.876793,530.140137 120.584236,550.861511 157.444550,562.468384 
	C175.529175,568.162964 194.213699,570.291748 213.056900,570.799133 
	C237.357910,571.453491 261.671478,571.640320 285.979431,572.039124 
	C293.241730,572.158325 294.240356,573.282227 293.767120,579.611633 
	C274.290741,579.611633 254.877335,579.993286 235.484940,579.518311 
	C209.231262,578.875366 182.875702,578.675598 157.512207,570.204468 
	C142.141922,565.071045 127.614693,558.238770 113.672722,549.303406 
z"/>
<path fill="#0B0B0B" opacity="1.000000" stroke="none" 
	d="
M85.621201,787.343933 
	C66.828423,779.456177 53.527683,766.062744 43.585526,748.696533 
	C64.289978,774.861389 91.897156,786.410400 124.400009,787.016113 
	C156.900238,787.621765 184.551178,776.680420 205.451660,750.617249 
	C205.739212,750.949768 206.026764,751.282288 206.314316,751.614807 
	C205.529526,752.950562 204.819778,754.337524 203.948883,755.614563 
	C186.881119,780.641541 162.889587,793.310730 132.931473,794.946411 
	C116.796906,795.827393 101.044556,793.630371 85.621201,787.343933 
z"/>
<path fill="#0B0B0B" opacity="1.000000" stroke="none" 
	d="
M721.135254,748.859863 
	C733.025208,763.669800 747.147278,775.606018 765.585327,781.220947 
	C800.975159,791.998291 834.688416,789.066040 865.311218,766.921753 
	C872.181946,761.953369 877.842651,755.311646 884.191467,749.657410 
	C870.518066,773.177429 850.495239,788.145935 823.440186,792.963135 
	C777.916809,801.068726 742.773254,786.237244 720.714478,749.655151 
	C720.886230,749.084045 721.010742,748.971985 721.135254,748.859863 
z"/>
<path fill="#0A0A0A" opacity="1.000000" stroke="none" 
	d="
M261.068909,728.275879 
	C252.262985,728.167786 243.943176,728.162231 235.630325,727.918823 
	C229.070267,727.726807 223.075882,728.950500 218.101227,733.567383 
	C217.718948,733.922119 217.040924,733.958191 215.874023,734.355835 
	C217.387894,731.822571 218.551636,729.922058 219.669922,727.995117 
	C222.870483,722.480164 227.484009,719.910645 234.018478,719.934326 
	C264.296387,720.044067 294.575684,720.014160 324.853302,719.833679 
	C336.145813,719.766418 346.932037,717.587219 355.920990,709.549194 
	C355.087860,716.258240 349.702393,722.759155 342.015930,724.845337 
	C335.679993,726.565063 329.002472,727.670532 322.448120,727.821167 
	C302.158661,728.287537 281.855743,728.168030 261.068909,728.275879 
z"/>
<path fill="#0A0A0A" opacity="1.000000" stroke="none" 
	d="
M710.973816,734.028503 
	C705.210815,729.163696 698.551086,727.806091 691.082031,727.853027 
	C660.932983,728.042603 630.781067,727.944214 600.631226,727.771423 
	C585.551331,727.684998 575.731262,721.540405 571.552612,710.129639 
	C571.504211,709.997437 571.546570,709.832031 571.546570,709.104736 
	C582.696716,719.003845 596.037170,720.005005 609.760437,719.955078 
	C636.246155,719.858765 662.743469,720.420715 689.213562,719.783264 
	C700.014038,719.523193 707.201904,722.919556 711.206909,733.334473 
	C711.203613,733.784241 710.973816,734.028503 710.973816,734.028503 
z"/>
<path fill="#0B0B0B" opacity="1.000000" stroke="none" 
	d="
M546.170227,580.090454 
	C530.101624,580.122498 514.507812,580.122498 498.789825,580.122498 
	C497.434814,574.159912 498.947113,572.006592 505.393463,571.979370 
	C521.513855,571.911255 537.634766,571.922791 553.755249,571.971863 
	C559.911682,571.990662 561.415466,573.777588 561.399658,580.058350 
	C556.472778,580.058350 551.558899,580.058350 546.170227,580.090454 
z"/>
<path fill="#0B0B0B" opacity="1.000000" stroke="none" 
	d="
M390.000671,572.313171 
	C401.125671,572.213013 411.750763,572.016785 422.376465,571.978088 
	C429.049011,571.953796 430.259186,573.515564 429.455505,580.421631 
	C408.637360,580.421631 387.826294,580.421631 366.973450,580.421631 
	C366.253021,574.131348 368.021423,571.982727 374.557892,571.976746 
	C379.538818,571.972229 384.519989,572.173889 390.000671,572.313171 
z"/>
<path fill="#010101" opacity="1.000000" stroke="none" 
	d="
M383.552063,869.375244 
	C382.889618,869.197632 382.469696,868.812195 381.541260,867.960022 
	C382.793213,868.088135 383.361420,868.146240 384.093994,868.466431 
	C384.103790,868.874756 383.949188,869.021118 383.552063,869.375244 
z"/>
<path fill="#0A0A0A" opacity="1.000000" stroke="none" 
	d="
M711.320068,733.663574 
	C711.579224,733.915955 711.721985,734.289001 711.864685,734.662048 
	C711.602356,734.645020 711.340088,734.627991 711.025757,734.319702 
	C710.973816,734.028503 711.203613,733.784241 711.320068,733.663574 
z"/>
<path fill="#0B0B0B" opacity="1.000000" stroke="none" 
	d="
M720.559265,749.345032 
	C720.270203,749.090088 720.183594,748.686279 720.096924,748.282471 
	C720.378357,748.287537 720.659790,748.292664 721.038208,748.578796 
	C721.010742,748.971985 720.886230,749.084045 720.559265,749.345032 
z"/>
<path fill="#0B0B0B" opacity="1.000000" stroke="none" 
	d="
M870.085938,491.051575 
	C870.152344,490.654785 870.413330,490.420929 870.674377,490.187073 
	C870.766113,490.446777 870.857849,490.706512 870.833496,491.219727 
	C870.571777,491.386993 870.426147,491.300751 870.085938,491.051575 
z"/>
<path fill="#FFFFFF" opacity="1.000000" stroke="none" 
	d="
M464.463928,506.926270 
	C458.175323,506.983551 452.350647,506.954071 446.525940,506.952606 
	C378.373352,506.935638 310.220428,507.038696 242.068405,506.836151 
	C222.445557,506.777832 202.720490,507.448639 183.348450,503.087555 
	C130.976883,491.297485 90.851570,443.211578 86.911827,389.567383 
	C81.494820,315.808289 133.239990,272.565826 179.745880,258.080322 
	C186.727432,255.905701 193.646194,253.524139 200.562653,251.147049 
	C212.271332,247.122925 217.138901,238.530930 218.141739,226.498657 
	C219.452454,210.772629 220.009491,194.700790 223.832428,179.518417 
	C237.099716,126.828918 273.364807,97.776688 325.008209,87.228790 
	C362.502472,79.570778 395.763031,91.012878 425.204773,114.570786 
	C433.525543,121.228638 441.377441,128.505707 449.979431,134.763260 
	C453.673706,137.450653 458.732697,138.262054 463.576416,139.851913 
	C468.606842,138.245773 473.961731,137.716995 477.717377,134.987610 
	C487.804260,127.657127 497.000031,119.114037 506.923676,111.542709 
	C529.879944,94.028061 555.646118,84.699005 584.825745,85.062469 
	C645.381531,85.816742 698.314148,131.562851 706.947021,191.260788 
	C708.587158,202.602280 709.349731,214.101685 709.923645,225.557983 
	C710.556946,238.197662 715.720215,247.238571 728.090393,251.407745 
	C736.759155,254.329437 745.563293,256.891205 754.101685,260.151367 
	C793.127380,275.052429 823.275024,300.097809 835.573608,340.896851 
	C860.909851,424.946442 803.402527,494.253357 737.219116,504.356384 
	C720.371521,506.928223 703.015381,506.764404 685.889771,506.816345 
	C612.236450,507.039825 538.581909,506.875549 464.463928,506.926270 
M531.498596,193.094940 
	C524.404297,191.314697 517.145569,190.015686 510.248230,187.658890 
	C493.377167,181.894073 477.374603,174.692978 467.448975,158.518097 
	C465.342377,155.085190 461.611908,155.259689 459.276703,158.909851 
	C450.037720,173.351151 435.900055,180.760574 420.492004,186.334167 
	C396.680603,194.947525 371.832123,196.950668 346.783508,197.599426 
	C337.907990,197.829285 337.078461,198.702332 337.075989,207.451324 
	C337.061737,257.928284 337.099823,308.405304 337.048004,358.882202 
	C337.034637,371.906891 337.211792,384.830170 342.275238,397.189636 
	C349.997986,416.040344 363.220795,430.638885 378.041718,444.006561 
	C402.383636,465.961548 430.581207,481.938293 459.875702,496.108398 
	C462.002075,497.136963 465.563416,496.770172 467.813812,495.699341 
	C477.566589,491.058472 487.284241,486.269745 496.642090,480.887085 
	C523.616638,465.371216 548.976562,447.732635 568.950623,423.385468 
	C582.735474,406.582550 590.162842,387.472321 590.111023,365.546967 
	C589.985962,312.572510 589.983215,259.597778 589.929443,206.623138 
	C589.921387,198.702087 589.118347,198.160019 581.048950,197.526108 
	C564.802673,196.249786 548.580139,194.671219 531.498596,193.094940 
z"/>
<path fill="#FEFFFF" opacity="1.000000" stroke="none" 
	d="
M769.714111,705.195618 
	C754.653137,679.998657 768.015503,650.434509 796.277161,645.671753 
	C811.783997,643.058472 828.473694,651.390259 836.603027,665.803162 
	C844.330383,679.503418 842.346558,696.902405 831.671936,709.050842 
	C813.525696,729.702576 786.159180,728.126160 769.714111,705.195618 
z"/>
<path fill="#FDFEFE" opacity="1.000000" stroke="none" 
	d="
M464.399475,841.954285 
	C445.033051,839.551636 430.807068,826.991638 426.976349,809.982971 
	C421.899689,787.442200 438.846588,764.109192 463.609833,763.133728 
	C484.116669,765.651550 496.754456,775.898254 500.969788,792.614746 
	C506.952911,816.341675 487.467377,840.864929 464.399475,841.954285 
z"/>
<path fill="#FEFEFE" opacity="1.000000" stroke="none" 
	d="
M140.040131,647.750916 
	C157.380981,655.414612 167.308716,672.261230 164.672089,689.062500 
	C161.930344,706.533569 147.472595,721.138062 130.856415,723.221497 
	C110.649376,725.755249 90.210030,709.905212 87.144684,689.324646 
	C84.160538,669.289307 98.658623,649.651917 119.050499,645.923523 
	C126.120560,644.630859 132.955338,645.141907 140.040131,647.750916 
z"/>
<path fill="#272D68" opacity="1.000000" stroke="none" 
	d="
M531.923218,193.156143 
	C548.580139,194.671219 564.802673,196.249786 581.048950,197.526108 
	C589.118347,198.160019 589.921387,198.702087 589.929443,206.623138 
	C589.983215,259.597778 589.985962,312.572510 590.111023,365.546967 
	C590.162842,387.472321 582.735474,406.582550 568.950623,423.385468 
	C548.976562,447.732635 523.616638,465.371216 496.642090,480.887085 
	C487.284241,486.269745 477.566589,491.058472 467.813812,495.699341 
	C465.563416,496.770172 462.002075,497.136963 459.875702,496.108398 
	C430.581207,481.938293 402.383636,465.961548 378.041718,444.006561 
	C363.220795,430.638885 349.997986,416.040344 342.275238,397.189636 
	C337.211792,384.830170 337.034637,371.906891 337.048004,358.882202 
	C337.099823,308.405304 337.061737,257.928284 337.075989,207.451324 
	C337.078461,198.702332 337.907990,197.829285 346.783508,197.599426 
	C371.832123,196.950668 396.680603,194.947525 420.492004,186.334167 
	C435.900055,180.760574 450.037720,173.351151 459.276703,158.909851 
	C461.611908,155.259689 465.342377,155.085190 467.448975,158.518097 
	C477.374603,174.692978 493.377167,181.894073 510.248230,187.658890 
	C517.145569,190.015686 524.404297,191.314697 531.923218,193.156143 
M362.042236,275.500000 
	C362.042236,303.832245 362.027466,332.164551 362.063995,360.496735 
	C362.067841,363.487152 362.170807,366.504639 362.572296,369.462830 
	C364.973785,387.156586 374.602417,400.932159 386.673431,413.315002 
	C407.926392,435.116882 433.798981,450.118286 460.870636,463.268646 
	C462.621613,464.119171 465.491394,463.798950 467.396912,462.984711 
	C472.896332,460.634949 478.262970,457.925934 483.514008,455.051636 
	C507.896576,441.705231 530.912720,426.538483 548.869873,404.832916 
	C559.734619,391.700287 565.998962,376.721375 566.022217,359.524323 
	C566.080933,316.194458 565.943542,272.864288 566.020569,229.534485 
	C566.029175,224.696457 564.378052,222.897964 559.401123,222.517700 
	C544.646606,221.390411 529.744080,220.697189 515.256653,217.950317 
	C496.445953,214.383743 478.418823,208.312637 466.973145,190.916351 
	C464.979797,187.886673 462.140259,188.913422 460.438568,191.552429 
	C452.865662,203.296661 441.256775,209.244888 428.703888,213.720337 
	C409.304810,220.636612 389.042938,222.175278 368.674530,222.603394 
	C363.708618,222.707779 361.916473,224.600922 361.976654,229.502869 
	C362.160797,244.499908 362.042755,259.500671 362.042236,275.500000 
z"/>
<path fill="#FEFEFE" opacity="1.000000" stroke="none" 
	d="
M362.042236,275.000000 
	C362.042755,259.500671 362.160797,244.499908 361.976654,229.502869 
	C361.916473,224.600922 363.708618,222.707779 368.674530,222.603394 
	C389.042938,222.175278 409.304810,220.636612 428.703888,213.720337 
	C441.256775,209.244888 452.865662,203.296661 460.438568,191.552429 
	C462.140259,188.913422 464.979797,187.886673 466.973145,190.916351 
	C478.418823,208.312637 496.445953,214.383743 515.256653,217.950317 
	C529.744080,220.697189 544.646606,221.390411 559.401123,222.517700 
	C564.378052,222.897964 566.029175,224.696457 566.020569,229.534485 
	C565.943542,272.864288 566.080933,316.194458 566.022217,359.524323 
	C565.998962,376.721375 559.734619,391.700287 548.869873,404.832916 
	C530.912720,426.538483 507.896576,441.705231 483.514008,455.051636 
	C478.262970,457.925934 472.896332,460.634949 467.396912,462.984711 
	C465.491394,463.798950 462.621613,464.119171 460.870636,463.268646 
	C433.798981,450.118286 407.926392,435.116882 386.673431,413.315002 
	C374.602417,400.932159 364.973785,387.156586 362.572296,369.462830 
	C362.170807,366.504639 362.067841,363.487152 362.063995,360.496735 
	C362.027466,332.164551 362.042236,303.832245 362.042236,275.000000 
M463.999878,280.500000 
	C463.999878,335.563507 463.999878,390.626984 463.999878,446.065125 
	C465.167450,445.765015 465.817657,445.699768 466.377075,445.439423 
	C490.374603,434.270935 512.730591,420.644104 531.490906,401.690704 
	C544.769287,388.275665 552.878967,372.582764 552.830872,353.246552 
	C552.740540,316.941071 552.742676,280.635345 552.702820,244.329742 
	C552.694458,236.741150 552.188965,236.242935 544.426331,236.107407 
	C528.898560,235.836334 513.476257,234.561600 498.586060,229.864609 
	C486.066986,225.915573 474.186340,220.780045 466.764587,208.935745 
	C466.372894,208.310623 465.263733,208.135086 463.999878,207.507629 
	C463.999878,231.918869 463.999878,255.709427 463.999878,280.500000 
z"/>
<path fill="#02AEEF" opacity="1.000000" stroke="none" 
	d="
M463.999878,280.000000 
	C463.999878,255.709427 463.999878,231.918869 463.999878,207.507629 
	C465.263733,208.135086 466.372894,208.310623 466.764587,208.935745 
	C474.186340,220.780045 486.066986,225.915573 498.586060,229.864609 
	C513.476257,234.561600 528.898560,235.836334 544.426331,236.107407 
	C552.188965,236.242935 552.694458,236.741150 552.702820,244.329742 
	C552.742676,280.635345 552.740540,316.941071 552.830872,353.246552 
	C552.878967,372.582764 544.769287,388.275665 531.490906,401.690704 
	C512.730591,420.644104 490.374603,434.270935 466.377075,445.439423 
	C465.817657,445.699768 465.167450,445.765015 463.999878,446.065125 
	C463.999878,390.626984 463.999878,335.563507 463.999878,280.000000 
z"/>
</svg>